<svg height="512pt" viewBox="0 -30 512 512" width="512pt" xmlns="http://www.w3.org/2000/svg"><path d="m160.042969 452.296875h-129.628907c-16.769531 0-30.414062-13.644531-30.414062-30.421875v-10.914062c0-20.257813 10.898438-39.148438 28.441406-49.285157v.007813l69.65625-40.285156c-29.011718-1.589844-52.71875-12.023438-68.785156-21.667969-5.488281-3.300781-8.910156-9.078125-9.15625-15.480469-.238281-6.132812 2.585938-11.910156 7.535156-15.433594 13.523438-9.617187 36.222656-39.246094 36.222656-129.582031 0-45.070313 13.132813-80.210937 39.023438-104.4375 39.140625-36.617187 93.371094-35.011719 99.832031-34.671875 4.640625-.1953125 35.097657-1.058594 66.507813 12.945312 3.046875 1.355469 5.027344 4.371094 5.0625 7.707032.03125 3.335937-1.886719 6.390625-4.917969 7.808594-52.785156 24.746093-58.988281 83.734374-59.203125 107.953124-.066406 7.75-3.941406 15.097657-10.625 20.148438-7.464844 5.65625-14.523438 16.355469-9.863281 27.921875 8.183593 20.324219 25.976562 38.082031 33.246093 44.773437 4.835938 4.4375 7.652344 10.683594 7.910157 17.578126 1.664062 45.125 19.71875 60.714843 30.328125 65.988281 10.835937 5.394531 17.570312 15.554687 17.570312 26.53125 0 15.527343-15.675781 25.632812-23.210937 30.480469-.84375.535156-1.785157.929687-2.765625 1.160156l-53.058594 11.816406c-18.347656 4.089844-31.164062 20.070312-31.164062 38.871094v21.949218c-.011719 4.71875-3.832032 8.539063-8.542969 8.539063zm-37.554688-148.828125c4.582031 0 8.6875 2.816406 10.273438 7.210938 1.75 4.8125-.042969 10.121093-4.359375 12.894531l-91.425782 52.871093v.007813c-12.28125 7.101563-19.910156 20.328125-19.910156 34.507813v10.914062c0 7.359375 5.992188 13.347656 13.347656 13.347656h121.09375v-13.414062c0-26.855469 18.3125-49.691406 44.527344-55.535156l51.566406-11.484376c5.0625-3.296874 14.117188-9.601562 14.117188-15.308593 0-4.523438-3.03125-8.722657-8.097656-11.25-14.003906-6.960938-37.789063-26.707031-39.785156-80.636719-.085938-2.304688-.929688-4.300781-2.398438-5.640625-10.09375-9.304687-28.378906-28.265625-37.527344-50.960937-6.691406-16.617188-.511718-35.867188 15.386719-47.90625 2.429687-1.84375 3.839844-4.285157 3.863281-6.707032.222656-24.75 6.117188-81.664062 52.480469-113.769531-22.964844-6.550781-42.113281-5.453125-42.332031-5.425781-.359375.015625-.746094.015625-1.101563 0-.511719-.058594-52.429687-2.925782-87.707031 30.175781-22.238281 20.871094-33.519531 51.777344-33.519531 91.875 0 93.082031-23.601563 129.410156-43.390625 143.480469-.144532.101562-.402344.28125-.375.878906.007812.230469.101562 1.023438.886718 1.503906 18.167969 10.914063 47.316407 22.953125 82.988282 18.457032.46875-.0625.9375-.085938 1.398437-.085938zm-89.78125 65.59375h.085938zm0 0"/><path d="m409.601562 452.296875c-56.464843 0-102.402343-45.933594-102.402343-102.398437 0-56.464844 45.9375-102.398438 102.402343-102.398438 56.464844 0 102.398438 45.933594 102.398438 102.398438 0 56.464843-45.933594 102.398437-102.398438 102.398437zm0-187.730469c-47.054687 0-85.335937 38.277344-85.335937 85.332032 0 47.050781 38.28125 85.332031 85.335937 85.332031 47.050782 0 85.332032-38.28125 85.332032-85.332031 0-47.054688-38.28125-85.332032-85.332032-85.332032zm0 0"/><path d="m409.601562 409.632812c-4.710937 0-8.535156-3.816406-8.535156-8.535156v-102.398437c0-4.71875 3.824219-8.535157 8.535156-8.535157 4.707032 0 8.53125 3.816407 8.53125 8.535157v102.398437c0 4.710938-3.824218 8.535156-8.53125 8.535156zm0 0"/><path d="m460.800781 358.429688h-102.402343c-4.707032 0-8.53125-3.8125-8.53125-8.53125s3.824218-8.535157 8.53125-8.535157h102.402343c4.710938 0 8.53125 3.816407 8.53125 8.535157s-3.820312 8.53125-8.53125 8.53125zm0 0"/><path d="m409.601562 452.296875h-249.558593c-4.710938 0-8.535157-3.8125-8.535157-8.53125v-21.878906c0-26.898438 18.339844-49.769531 44.597657-55.621094l51.496093-11.46875c5.0625-3.292969 14.117188-9.601563 14.117188-15.308594 0-4.523437-3.03125-8.722656-8.097656-11.246093-14.003906-6.964844-37.789063-26.710938-39.785156-80.640626-.085938-2.304687-.929688-4.300781-2.398438-5.640624-10-9.207032-28.140625-28-37.347656-50.527344-6.949219-17.007813-.683594-36.554688 15.605468-48.628906 2.175782-1.625 3.449219-3.96875 3.464844-6.425782.179688-19.902344 2.851563-40.015625 9.832032-58.738281 5.367187-14.386719 13.335937-27.78125 23.925781-38.945313 9.046875-9.539062 19.832031-17.304687 31.574219-23.175781 10.375-5.1875 21.445312-8.933593 32.765624-11.433593 9.046876-1.996094 18.261719-3.226563 27.511719-3.722657 12.066407-.628906 24.398438-.503906 36.421875.871094 10.265625 1.179687 20.445313 3.261719 30.300782 6.390625 11.605468 3.6875 22.769531 8.839844 32.871093 15.660156 11.417969 7.695313 21.332031 17.492188 29.097657 28.875 9.4375 13.84375 15.539062 29.707032 18.988281 46.046875 2.652343 12.554688 3.796875 25.394531 3.917969 38.210938.023437 3.304687 2.371093 5.546875 3.761718 6.597656 15.972656 12.03125 22.203125 31.316406 15.488282 47.984375-9.164063 22.730469-27.441407 41.675781-37.519532 50.953125-1.46875 1.339844-2.3125 3.351563-2.398437 5.648437-.179688 4.675782-.5625 9.453126-1.195313 14.609376-.316406 2.550781-1.765625 4.820312-3.941406 6.195312-2.1875 1.363281-4.867188 1.664062-7.296875.84375-9.046875-3.097656-18.339844-4.675781-27.648437-4.675781-47.054688 0-85.332032 38.28125-85.332032 85.332031 0 47.054688 38.277344 85.332031 85.332032 85.332031 4.710937 0 8.535156 3.816407 8.535156 8.535157s-3.84375 8.523437-8.550782 8.523437zm-241.027343-17.066406h184.476562c-27.613281-18.355469-45.851562-49.757813-45.851562-85.332031 0-56.464844 45.9375-102.398438 102.402343-102.398438 7.667969 0 15.324219.886719 22.867188 2.636719.058594-1.058594.113281-2.109375.152344-3.167969.257812-6.894531 3.066406-13.132812 7.914062-17.585938 7.261719-6.675781 25.035156-24.40625 33.234375-44.765624 4.378907-10.855469-1.824219-21.871094-9.921875-27.964844-6.648437-5-10.496094-12.320313-10.566406-20.085938-.179688-19.945312-3.089844-40.21875-11.160156-58.582031-6.042969-13.730469-15.027344-26.0625-26.632813-35.609375-9.949219-8.183594-21.53125-14.191406-33.742187-18.21875-10.503906-3.464844-21.453125-5.511719-32.46875-6.417969-14.574219-1.195312-29.746094-1.050781-44.277344 1.03125-11.503906 1.648438-22.863281 4.636719-33.511719 9.3125-12.132812 5.324219-23.261719 12.890625-32.316406 22.59375-10.898437 11.691407-18.40625 26.085938-22.902344 41.363281-4.242187 14.410157-5.921875 29.488282-6.050781 44.476563-.066406 7.855469-3.847656 15.136719-10.367188 19.976563-8.253906 6.125-14.542968 17.296874-9.976562 28.472656 8.25 20.183594 25.898438 37.785156 33.101562 44.417968 4.835938 4.4375 7.652344 10.683594 7.910157 17.578126 1.664062 45.125 19.71875 60.714843 30.328125 65.988281 10.835937 5.394531 17.570312 15.554687 17.570312 26.53125 0 15.527343-15.675781 25.632812-23.210937 30.480469-.84375.535156-1.785157.929687-2.765625 1.160156l-52.992188 11.800781c-18.390625 4.085937-31.242187 20.105469-31.242187 38.945313zm0 0"/></svg>